<svg xmlns="http://www.w3.org/2000/svg" xmlns:xlink="http://www.w3.org/1999/xlink"><symbol id="icon-footer-fb" viewBox="0 0 12 22">
<path d="M12 4V0H8C5.79086 0 4 1.79086 4 4V8H0V12H4V22H8V12H12V8H8V4H12Z" fill="white"/>
</symbol><symbol id="icon-footer-insta" viewBox="0 0 21 21">
<path fill-rule="evenodd" clip-rule="evenodd" d="M3 0H18C19.65 0 21 1.35 21 3V18C21 19.65 19.65 21 18 21H3C1.35 21 0 19.65 0 18V3C0 1.35 1.35 0 3 0ZM14 10.5C14 8.57 12.43 7 10.5 7C8.57 7 7 8.57 7 10.5C7 12.43 8.57 14 10.5 14C12.43 14 14 12.43 14 10.5ZM3 18V9H4.181C4.0626 9.49127 4.00186 9.99467 4 10.5C4 14.0899 6.91015 17 10.5 17C14.0899 17 17 14.0899 17 10.5C16.9986 9.99464 16.9379 9.49118 16.819 9H18V18H3ZM14 7H18V3H14V7Z" fill="white"/>
</symbol><symbol id="icon-footer-vk" viewBox="0 0 26 15">
<path d="M15.5403 11.7281C16.4609 11.4384 17.6395 13.6406 18.8943 14.4834C19.836 15.1219 20.5573 14.9841 20.5573 14.9841L23.9017 14.9372C23.9017 14.9372 25.6495 14.8322 24.8232 13.4803C24.7549 13.3678 24.3389 12.4781 22.334 10.6472C20.2376 8.73186 20.5217 9.04218 23.0456 5.73093C24.5835 3.71249 25.1988 2.47968 25.0062 1.95468C24.8213 1.44936 23.6918 1.58061 23.6918 1.58061L19.9237 1.60593C19.5568 1.60686 19.2458 1.71749 19.1042 2.08874C19.1013 2.09249 18.5062 3.65061 17.7127 4.9753C16.0362 7.77749 15.3669 7.92655 15.0896 7.75124C14.4531 7.3453 14.6139 6.1228 14.6139 5.25374C14.6139 2.5378 15.0299 1.4053 13.7992 1.1128C13.388 1.0153 13.0876 0.951552 12.0389 0.942177C10.6985 0.922489 9.56027 0.942177 8.91508 1.25061C8.48656 1.45968 8.15819 1.91811 8.35753 1.94436C8.6079 1.97718 9.1693 2.09436 9.46975 2.49374C9.8559 3.01124 9.84434 4.17093 9.84434 4.17093C9.84434 4.17093 10.0649 7.36874 9.32434 7.7653C8.8159 8.03718 8.12064 7.48218 6.62516 4.9378C5.86153 3.63655 5.28471 2.19843 5.28471 2.19843C5.28471 2.19843 5.17301 1.93124 4.97079 1.78499C4.73005 1.61155 4.39301 1.55624 4.39301 1.55624L0.816563 1.57874C0.816563 1.57874 0.27923 1.59374 0.0818227 1.82436C-0.0934366 2.02874 0.0673782 2.45061 0.0673782 2.45061C0.0673782 2.45061 2.86864 8.90155 6.04064 12.1509C8.94879 15.1341 12.2537 14.9362 12.2537 14.9362H13.7511C13.7511 14.9362 14.2027 14.8856 14.4338 14.6437C14.6495 14.4187 14.6399 13.9959 14.6399 13.9959C14.6399 13.9959 14.61 12.0187 15.5403 11.7281Z" fill="white"/>
</symbol><symbol id="icon-header-bookmark" viewBox="0 0 14 16">
<g opacity="0.3">
<path d="M14 15C14 15.55 13.632 15.741 13.182 15.426L7.819 11.661C7.369 11.346 6.632 11.346 6.182 11.661L0.818 15.426C0.368 15.741 0 15.55 0 15V1C0 0.45 0.45 0 1 0H13C13.55 0 14 0.45 14 1V15Z" fill="white"/>
</g>
</symbol><symbol id="icon-header-cart" viewBox="0 0 15 15">
<g opacity="0.3">
<path d="M4.5 15C5.32843 15 6 14.3284 6 13.5C6 12.6716 5.32843 12 4.5 12C3.67157 12 3 12.6716 3 13.5C3 14.3284 3.67157 15 4.5 15Z" fill="white"/>
<path d="M12.5 15C13.3284 15 14 14.3284 14 13.5C14 12.6716 13.3284 12 12.5 12C11.6716 12 11 12.6716 11 13.5C11 14.3284 11.6716 15 12.5 15Z" fill="white"/>
<path d="M15 2H4.07L3.648 0H0V2H2.031L4.016 11H15V9H9.441L15 6.951V2Z" fill="white"/>
</g>
</symbol><symbol id="icon-header-login" viewBox="0 0 21 17">
<path d="M14.875 8.5L6 0V6H0V11H6V17L14.875 8.5Z" fill="#C5C5C5"/>
<path d="M16.986 15.01H11.959V17H16.986C19.164 17 19.99 15.19 20.015 13.974V3.028C19.99 1.811 19.164 0 16.986 0H11.959V1.99H16.986C17.825 1.99 17.978 2.671 17.996 3.047V13.951C17.979 14.327 17.825 15.01 16.986 15.01Z" fill="#C5C5C5"/>
</symbol><symbol id="icon-header-phone" viewBox="0 0 19 19">
<path d="M15.572 18.985H14.631C10.502 18.497 7.47403 16.577 5.27203 14.121C3.06203 11.66 1.31803 8.49202 0.978027 4.22802V3.08402C1.05603 2.31002 1.43703 1.78002 1.87603 1.32702C2.42503 0.76602 3.25003 0.0440198 4.00203 0.0190198C4.55603 0.00101977 5.50203 0.39902 5.88103 0.91802C6.21003 1.36402 6.38503 2.25702 6.53703 2.92102C6.69103 3.59202 7.04203 4.56402 6.94503 5.21002C6.79703 6.21702 5.45803 6.64402 5.06603 7.37602C6.37303 10.511 8.50903 12.815 11.359 14.407C12.074 14.015 12.705 12.835 13.691 12.812C14.05 12.803 14.509 12.99 14.875 13.098C15.277 13.219 15.625 13.373 15.979 13.506C16.575 13.73 17.627 14.027 17.983 14.527C18.348 15.04 18.553 15.883 18.473 16.406C18.309 17.447 16.594 18.603 15.572 18.985Z" fill="#B7BFC8"/>
</symbol><symbol id="icon-header-search" viewBox="0 0 17 17">
<g opacity="0.3">
<path fill-rule="evenodd" clip-rule="evenodd" d="M13.458 12.044L17 15.586L15.586 17L12.044 13.458C10.782 14.421 9.21 15 7.5 15C3.35786 15 0 11.6421 0 7.5C0 3.35786 3.35786 0 7.5 0C11.6421 0 15 3.35786 15 7.5C15.0001 9.14309 14.4581 10.7403 13.458 12.044ZM7.5 2C4.467 2 2 4.467 2 7.5C2.00331 10.5362 4.4638 12.9967 7.5 13C10.532 13 13 10.532 13 7.5C13 4.467 10.532 2 7.5 2Z" fill="white"/>
</g>
</symbol><symbol id="icon-header-shape" viewBox="0 0 20 18">
<path d="M17.881 14.166C15.737 13.431 13.625 12.5 12.674 11.776C12.017 11.275 11.904 10.158 12.157 9.361C13.275 8.458 14.021 6.884 14.021 5.083C14.021 2.276 12.221 0 10 0C7.77902 0 5.97901 2.276 5.97901 5.083C5.97901 6.884 6.72501 8.457 7.84201 9.36C8.09501 10.158 7.98302 11.275 7.32502 11.776C6.37502 12.5 4.26201 13.43 2.11801 14.166C-0.0259852 14.902 1.48343e-05 18 1.48343e-05 18H20C20 18 20.025 14.901 17.881 14.166Z" fill="#C5C5C5"/>
</symbol><symbol id="icon-home" viewBox="0 0 14 12">
<path d="M2 7.99999V12H6V7.99999H8V12H12V7.99999L7 3.51599L2 7.99999Z" fill="#C1C6CE"/>
<path d="M13.831 6.365L12 4.751V0H9.99998V2.987L7.33198 0.635C7.31198 0.618 7.28898 0.612 7.26798 0.598C7.24294 0.579705 7.21614 0.56396 7.18798 0.551C7.15708 0.540195 7.12529 0.532163 7.09298 0.527C7.06198 0.521 7.03198 0.515 6.99998 0.515C6.96898 0.515 6.93898 0.521 6.90798 0.527C6.87551 0.531919 6.84366 0.5403 6.81298 0.552C6.78498 0.563 6.75998 0.581 6.73298 0.598C6.71198 0.612 6.68798 0.618 6.66898 0.635L0.170976 6.365C0.0162401 6.50291 -0.0375953 6.72187 0.0355474 6.9158C0.10869 7.10974 0.293707 7.23862 0.500976 7.24C0.622907 7.24035 0.740711 7.19586 0.831976 7.115L6.99998 1.677L13.169 7.115C13.3778 7.27913 13.6784 7.25178 13.8542 7.05265C14.0299 6.85352 14.0198 6.55183 13.831 6.365Z" fill="#C1C6CE"/>
</symbol></svg>